<svg xmlns="http://www.w3.org/2000/svg" xmlns:xlink="http://www.w3.org/1999/xlink" id="Layer_1" x="0" y="0" version="1.1" viewBox="0 0 564.8 449.9" style="enable-background:new 0 0 564.8 449.9" xml:space="preserve"><style type="text/css">.st0{fill:#0d3749}.st1{fill:#3f3d56}.st2{fill:#00bfa6}.st3{fill:#1c8c77}.st4{fill:#e6e6e6}.st5{fill:#fff}.st6{fill:#f2f2f2}.st7{fill:#ffb6b6}.st8{fill:#2f2e41}.st9{fill:#3a3a68}.st10{fill:#efc822}.st11{fill:#eac113}.st12{fill:#edcf21}</style><path d="M196.2,154.1c67.9,0,123,55.1,123,123s-55.1,123-123,123s-161.9-67.4-123-123S128.2,154.1,196.2,154.1	L196.2,154.1z" class="st0"/><path d="M360.8,160c-1.1,0-2,0.9-2,2v64c0,1.1,0.9,2,2,2s2-0.9,2-2v-64C362.8,160.9,361.9,160,360.8,160z" class="st1"/><path d="M24.8,112c-1.1,0-2,0.9-2,2v16c0,1.1,0.9,2,2,2s2-0.9,2-2v-16C26.8,112.9,25.9,112,24.8,112z" class="st2"/><path d="M24.8,160c-1.1,0-2,0.9-2,2v31c0,1.1,0.9,2,2,2s2-0.9,2-2v-31C26.8,160.9,25.9,160,24.8,160z" class="st2"/><path d="M24.8,204c-1.1,0-2,0.9-2,2v31c0,1.1,0.9,2,2,2s2-0.9,2-2v-31C26.8,204.9,25.9,204,24.8,204z" class="st2"/><path d="M204.2,49c-1.1,0-2,0.9-2,2v31c0,1.1,0.9,2,2,2s2-0.9,2-2V51C206.2,49.9,205.3,49,204.2,49z" class="st2"/><g><path d="M510.6,432.6c2.1,0.1,3.2-2.4,1.6-3.9l-0.2-0.6c0,0,0-0.1,0.1-0.1c2.1-5,9.2-4.9,11.2,0 c1.8,4.4,4.2,8.9,4.8,13.5c0.3,2.1,0.1,4.2-0.3,6.2c4.3-9.4,6.6-19.7,6.6-30c0-2.6-0.1-5.2-0.4-7.8c-0.2-2.1-0.6-4.2-1-6.3 c-2.3-11.3-7.3-22-14.5-31c-3.5-1.9-6.3-4.9-8.1-8.4c-0.6-1.3-1.1-2.7-1.3-4.1c0.4,0.1,1.5-5.9,1.2-6.3c0.5-0.8,1.5-1.2,2.1-2.1 c3-4,7.1-3.3,9.2,2.2c4.6,2.3,4.6,6.1,1.8,9.8c-1.8,2.3-2,5.5-3.6,8c0.2,0.2,0.3,0.4,0.5,0.6c3,3.8,5.5,7.9,7.7,12.2 c-0.6-4.8,0.3-10.5,1.8-14.2c1.7-4.2,5-7.8,7.9-11.4c3.5-4.4,10.6-2.5,11.2,3.1c0,0.1,0,0.1,0,0.2c-0.4,0.2-0.8,0.5-1.3,0.8 c-2.3,1.5-1.5,5.2,1.2,5.6l0.1,0c-0.2,1.5-0.4,3.1-0.8,4.6c3.7,14.3-4.3,19.5-15.7,19.8c-0.3,0.1-0.5,0.3-0.7,0.4 c1.2,3.3,2.1,6.6,2.8,10c0.6,3,1,6,1.3,9c0.3,3.8,0.3,7.7-0.1,11.5l0-0.1c0.8-4.2,3.1-8.1,6.4-10.9c4.9-4.1,11.9-5.6,17.3-8.8 c2.6-1.6,5.9,0.5,5.4,3.4l0,0.1c-0.8,0.3-1.6,0.7-2.3,1.1c-0.4,0.2-0.8,0.5-1.3,0.8c-2.3,1.5-1.5,5.2,1.2,5.6l0.1,0 c0,0,0.1,0,0.1,0c-1.4,3.2-3.3,6.2-5.6,8.8c-2.3,12.5-12.3,13.7-22.9,10h0c-1.2,5.1-2.9,10-5,14.7h-18c-0.1-0.2-0.1-0.4-0.2-0.6 c1.7,0.1,3.3,0,5-0.3c-1.3-1.6-2.7-3.3-4-4.9c0,0-0.1-0.1-0.1-0.1c-0.7-0.8-1.4-1.7-2-2.5l0,0C509.6,437.7,509.9,435.1,510.6,432.6 L510.6,432.6L510.6,432.6z" class="st3"/></g><path d="M142.4,268.8H73.2v-2h69.2c6,0,10.9-4.9,10.9-10.9v-46.8h2v46.8C155.3,263,149.5,268.8,142.4,268.8L142.4,268.8	z" class="st2"/><rect width="157.4" height="2" x="117" y="370.3" class="st2"/><g><path d="M374.3,255.5h-84.1c-4.5,0-8.2-3.7-8.2-8.2v-83.1c0-4.5,3.7-8.2,8.2-8.2h84.1c4.5,0,8.2,3.7,8.2,8.2v83.1 C382.6,251.8,378.9,255.5,374.3,255.5z" class="st4"/><path d="M305.9,158.4c-11.8,0-21.4,9.6-21.4,21.4v65.6c0,4.2,3.4,7.5,7.5,7.5h51.4c20.3,0,36.7-16.4,36.7-36.7v-50.4 c0-4.2-3.4-7.5-7.5-7.5L305.9,158.4L305.9,158.4z" class="st5"/><g><path d="M354.8,182.5h-45.2c-0.9,0-1.6-0.7-1.6-1.6s0.7-1.6,1.6-1.6h45.2c0.9,0,1.6,0.7,1.6,1.6 S355.7,182.5,354.8,182.5z" class="st4"/><path d="M354.8,215.9h-45.2c-0.9,0-1.6-0.7-1.6-1.6s0.7-1.6,1.6-1.6h45.2c0.9,0,1.6,0.7,1.6,1.6 S355.7,215.9,354.8,215.9z" class="st4"/><path d="M373.2,199.2h-81.9c-0.9,0-1.6-0.7-1.6-1.6s0.7-1.6,1.6-1.6h81.9c0.9,0,1.6,0.7,1.6,1.6 S374,199.2,373.2,199.2z" class="st4"/></g><path d="M374,229.5h-29.6c-0.9,0-1.6-0.7-1.6-1.6s0.7-1.6,1.6-1.6H374c0.9,0,1.6,0.7,1.6,1.6S374.9,229.5,374,229.5z" class="st4"/></g><g><path d="M197.7,421h-66.8c-3.6,0-6.5-2.9-6.5-6.5v-66c0-3.6,2.9-6.5,6.5-6.5h66.8c3.6,0,6.5,2.9,6.5,6.5v66 C204.2,418,201.3,421,197.7,421L197.7,421L197.7,421z" class="st4"/><path d="M143.4,343.9c-9.4,0-17,7.6-17,17V413c0,3.3,2.7,6,6,6h40.8c16.1,0,29.1-13,29.1-29.1v-40c0-3.3-2.7-6-6-6 L143.4,343.9L143.4,343.9z" class="st5"/><g><path d="M182.2,363.1h-35.9c-0.7,0-1.2-0.6-1.2-1.2s0.6-1.2,1.2-1.2h35.9c0.7,0,1.2,0.6,1.2,1.2 S182.9,363.1,182.2,363.1z" class="st4"/><path d="M182.2,389.5h-35.9c-0.7,0-1.2-0.6-1.2-1.2s0.6-1.2,1.2-1.2h35.9c0.7,0,1.2,0.6,1.2,1.2 S182.9,389.5,182.2,389.5z" class="st4"/><path d="M196.8,376.3h-65.1c-0.7,0-1.2-0.6-1.2-1.2s0.6-1.2,1.2-1.2h65.1c0.7,0,1.2,0.6,1.2,1.2 S197.5,376.3,196.8,376.3z" class="st4"/></g><path d="M197.5,400.3h-23.5c-0.7,0-1.2-0.6-1.2-1.2s0.6-1.2,1.2-1.2h23.5c0.7,0,1.2,0.6,1.2,1.2 S198.1,400.3,197.5,400.3z" class="st4"/></g><g><path d="M151,208.6h-49.4c-2.7,0-4.8-2.2-4.8-4.8V155c0-2.7,2.2-4.8,4.8-4.8H151c2.7,0,4.8,2.2,4.8,4.8v48.8 C155.9,206.5,153.7,208.6,151,208.6L151,208.6L151,208.6z" class="st4"/><path d="M110.9,151.6c-7,0-12.6,5.6-12.6,12.6v38.5c0,2.4,2,4.4,4.4,4.4h30.2c11.9,0,21.5-9.6,21.5-21.5V156 c0-2.4-2-4.4-4.4-4.4L110.9,151.6L110.9,151.6L110.9,151.6z" class="st5"/><g><path d="M139.6,165.8H113c-0.5,0-0.9-0.4-0.9-0.9s0.4-0.9,0.9-0.9h26.6c0.5,0,0.9,0.4,0.9,0.9 S140.1,165.8,139.6,165.8z" class="st4"/><path d="M139.6,185.4H113c-0.5,0-0.9-0.4-0.9-0.9s0.4-0.9,0.9-0.9h26.6c0.5,0,0.9,0.4,0.9,0.9 S140.1,185.4,139.6,185.4z" class="st4"/><path d="M150.4,175.6h-48.1c-0.5,0-0.9-0.4-0.9-0.9s0.4-0.9,0.9-0.9h48.1c0.5,0,0.9,0.4,0.9,0.9 S150.9,175.6,150.4,175.6z" class="st4"/></g><path d="M150.8,193.4h-17.4c-0.5,0-0.9-0.4-0.9-0.9s0.4-0.9,0.9-0.9h17.4c0.5,0,0.9,0.4,0.9,0.9 S151.4,193.4,150.8,193.4z" class="st4"/></g><circle cx="295.2" cy="260.1" r="10" class="st2"/><circle cx="154.2" cy="209.1" r="10" class="st2"/><circle cx="202.2" cy="346.1" r="10" class="st2"/><g><ellipse cx="223.8" cy="66.7" class="st6" rx="12.5" ry="12.2"/><path d="M323.7,62.5h-67.1c-2.3,0-4.2-1.9-4.2-4.2s1.9-4.2,4.2-4.2h67.1c2.3,0,4.2,1.9,4.2,4.2S326,62.5,323.7,62.5z" class="st6"/><path d="M376,76.6H256.6c-2.3,0-4.2-1.9-4.2-4.2s1.9-4.2,4.2-4.2H376c2.3,0,4.2,1.9,4.2,4.2S378.3,76.6,376,76.6z" class="st6"/></g><g><ellipse cx="43.4" cy="122.2" class="st6" rx="8.1" ry="7.9"/><path d="M108,119.5H64.6c-1.5,0-2.7-1.2-2.7-2.7s1.2-2.7,2.7-2.7H108c1.5,0,2.7,1.2,2.7,2.7S109.5,119.5,108,119.5z" class="st6"/><path d="M141.9,128.7H64.6c-1.5,0-2.7-1.2-2.7-2.7s1.2-2.7,2.7-2.7h77.3c1.5,0,2.7,1.2,2.7,2.7 S143.4,128.7,141.9,128.7z" class="st6"/></g><g><ellipse cx="285.4" cy="403.2" class="st6" rx="8.1" ry="7.9"/><path d="M350,400.5h-43.4c-1.5,0-2.7-1.2-2.7-2.7s1.2-2.7,2.7-2.7H350c1.5,0,2.7,1.2,2.7,2.7S351.5,400.5,350,400.5z" class="st6"/><path d="M383.9,409.7h-77.3c-1.5,0-2.7-1.2-2.7-2.7s1.2-2.7,2.7-2.7h77.3c1.5,0,2.7,1.2,2.7,2.7 S385.4,409.7,383.9,409.7z" class="st6"/></g><rect width="2" height="95" x="186.4" y="156" class="st4"/><circle cx="187.4" cy="251" r="6" class="st4"/><circle cx="278.4" cy="320" r="6" class="st4"/><circle cx="116.4" cy="238" r="6" class="st4"/><rect width="32.8" height="2" x="81.4" y="238.5" class="st4" transform="matrix(0.9995 -3.025956e-02 3.025956e-02 0.9995 -7.2017 3.0694)"/><polygon points="327.2 342.9 277.5 342.9 277.5 320 279.5 320 279.5 340.9 327.2 340.9" class="st4"/><circle cx="113.9" cy="303.5" r="6" class="st4"/><polygon points="162.2 326.5 112.4 326.5 112.4 303.5 114.4 303.5 114.4 324.5 162.2 324.5" class="st4"/><rect width="239" height="2" x="75.4" y="280.7" class="st4"/><g><g><polygon points="496.1 436.6 484.4 436.6 478.8 391.3 496.1 391.3" class="st7"/><path d="M496.6,448.9l-36.1,0v-0.5c0-7.8,6.3-14.1,14.1-14.1h0l6.6-5l12.3,5l3.2,0L496.6,448.9z" class="st8"/></g><g><polygon points="444.1 436.6 432.3 436.6 426.8 391.3 444.1 391.3" class="st7"/><path d="M444.5,448.9l-36.1,0v-0.5c0-7.8,6.3-14.1,14.1-14.1h0l6.6-5l12.3,5l3.2,0L444.5,448.9z" class="st8"/></g><path d="M438.5,183.9l67.7,1.4c0,0,12.2,20,2.9,48.1l1,7.8l-4.3,12.1l-2.1,37.1l2.1,5.7l-1.4,10.7 c0,0,5.7,70.6-8.6,106.2l-17.1-0.7l-6.4-93l3.6-6.8l-0.7-2.9l-8.6-42.8l-8.6,22.1v12.3l-7.8,9.1c0,0,2.9,84.1-5,101.3h-19.2 l-7.2-114.1l7.1-66.3l-1.4-4.3l2.1-2.1l-1.4-7.1L438.5,183.9L438.5,183.9z" class="st9"/><path d="M522.5,229.3c-4.3-2.2-6.1-7.5-3.9-11.8c0.2-0.4,0.5-0.8,0.8-1.2l-11.5-78.9l15.9,0.5l8.3,76.9 c3,2.6,4,6.9,2.2,10.6C532.1,229.7,526.8,231.4,522.5,229.3L522.5,229.3z" class="st7"/><path d="M371.3,192c-1.7-4.5,0.5-9.6,5-11.3c0.5-0.2,0.9-0.3,1.4-0.4l44.5-66.2l11.5,11.1l-45.4,62.6 c0.5,3.9-1.7,7.8-5.5,9.3C378.2,198.8,373.1,196.6,371.3,192z" class="st7"/><path d="M436,79.4c7.5-14.2,26.7-17.6,38.3-6.4c3.3,3.2,5,6.7,3.1,10.1c-6.6,11.8-21.8,24.6-21.8,24.6l-18.7,30.1 l-4.8,1.4l-6,13.8l-12.9,15.1l-17.1,9l-10-10l2.1-12.8l25.7-34.2c0,0,18.5-23.3,20.7-37.9L436,79.4C436,79.4,436,79.4,436,79.4z" class="st10"/><path d="M471.3,49.6c0.5,0.1,0.9,0.1,1.4,0.1c1.5,0.1,2.9,0,4.3-0.2c4.2-0.7,8-2.7,11-5.6c3.1-3.1,5.3-7.2,5.8-11.9 c1.4-11.1-6.5-21.2-17.6-22.5c-10.9-1.3-20.9,6.3-22.5,17.1c0,0.2-0.1,0.3-0.1,0.5C452.3,38.1,460.2,48.2,471.3,49.6 C471.3,49.6,471.3,49.6,471.3,49.6z" class="st7"/><path d="M449.2,25.8c2.9,1.4,7.6-3,9.4-0.5c0.3-0.6,0.6-1.1,0.9-1.6c0.3-0.5,0.7-1.4,1.2-1.6c-0.6,1.5-0.5,3.4,0.2,5.1 c2.8,1.1,6.5-1.3,9.2-4.1c4.1-4.3,10.8,6.8,9.2,12.6c2-2.5,6.4-1.1,7.9,1.7c1.5,2.8-1,5.1-1.6,8.2l4.1-0.5c2.6-2.5,2.4-6.7,4.5-9.6 c3.5-4.8,4.9-9.8,2.2-14.7c-2.3-4.4-2.6-10.1-6.9-12.7c1.9-0.9-4.8,0.5-3-2.5c1.8-3-7.8-3.4-8.4-1.8c-2.7-3.3-5.5-5.4-8.9-2.8 c-3.3,2.6-3,5.3-6.8,5c-1.8-0.1-1.6,3.3-2.7,4.8c-1.1,1.5-5.3,2.4-5.5,2.3c-1.1-0.9-4.9,6.5-4.9,6.5S446.3,24.3,449.2,25.8 C449.2,25.8,449.2,25.8,449.2,25.8z" class="st8"/><path d="M467.4,53.7l20.7-5l5.7,13.5c0,0,29.5,15.7,30.9,37.1c0,0,4,17.1,0.4,25c-3.6,7.8-18.5,32.8-18.5,32.8 s13.5,43.5,10,45.6s-88.4-2.1-88.4-6.4s14.1-49.2,14.1-49.2l3-77l19.3-7.1L467.4,53.7C467.4,53.7,467.4,53.7,467.4,53.7z" class="st11"/><path d="M493.5,117.5c-4.5-15.5,3-31.2,19.1-31.2c4.7,0,8.3,1.4,9.3,5.1c3.5,13.1,5.4,32.8,5.4,32.8l4.2,21l-2.5,4.4 l5.3,14.1l-2.5,6.7l-0.6,34.1l-12.8-0.7l-14.1-26l-5.4-3.2c0,0,4.3-42-4.3-54.1L493.5,117.5C493.5,117.5,493.5,117.5,493.5,117.5z" class="st12"/></g></svg>