<svg width="206" height="206" viewBox="0 0 206 206" fill="none" xmlns="http://www.w3.org/2000/svg">
<path fill-rule="evenodd" clip-rule="evenodd" d="M103 206C159.885 206 206 159.885 206 103C206 46.1147 159.885 0 103 0C46.1147 0 0 46.1147 0 103C0 159.885 46.1147 206 103 206ZM69.5014 172.371C75.5844 174.79 82.8655 176 91.3449 176C99.8242 176 107.382 174.883 114.018 172.65C120.838 170.417 126.552 167.532 131.161 163.996C135.769 160.46 139.271 156.459 141.668 151.992C144.248 147.526 145.539 143.059 145.539 138.593C145.539 134.126 144.433 130.032 142.221 126.31C140.009 122.588 137.244 118.959 133.926 115.423C141.115 113.562 147.751 110.677 153.834 106.769C159.917 102.86 165.355 98.673 170.147 94.2065C174.94 89.5538 178.995 84.9012 182.313 80.2486C185.631 75.4098 188.028 71.3155 189.502 67.9656C190.055 66.8489 190.147 65.9184 189.779 65.174C189.41 64.4296 188.857 64.0574 188.12 64.0574C187.382 63.8713 186.553 63.9643 185.631 64.3365C184.71 64.7087 184.064 65.2671 183.696 66.0115C181.484 70.1058 178.534 74.4793 174.848 79.1319C171.161 83.5985 166.829 87.9719 161.852 92.2524C157.06 96.3467 151.806 100.069 146.092 103.419C140.377 106.583 134.479 108.816 128.396 110.119C124.709 106.955 120.838 103.791 116.783 100.627C112.912 97.4633 109.317 94.2065 105.999 90.8566C102.866 87.3206 100.193 83.6915 97.9809 79.9694C95.9532 76.2473 94.9394 72.153 94.9394 67.6864C94.9394 64.1504 95.4002 60.7075 96.3219 57.3575C97.2435 53.8215 98.626 50.7508 100.469 48.1453C102.313 45.5398 104.617 43.4927 107.382 42.0038C110.147 40.3289 113.373 39.4914 117.059 39.4914C122.589 39.4914 126.829 40.8872 129.778 43.6788C132.728 46.2843 134.663 49.4481 135.585 53.1702C136.691 56.8923 136.875 60.7075 136.138 64.6157C135.585 68.3378 134.571 71.2224 133.096 73.2696C132.359 74.2001 132.175 75.1307 132.543 76.0612C132.912 76.9917 133.557 77.6431 134.479 78.0153C135.4 78.3875 136.322 78.4806 137.244 78.2944C138.35 77.9222 139.271 76.8987 140.009 75.2237C142.958 69.0822 144.433 63.3129 144.433 57.9159C144.433 52.3327 142.958 47.4939 140.009 43.3996C137.059 39.3053 132.543 36.0484 126.46 33.6291C120.562 31.2097 112.912 30 103.511 30C89.6859 30 78.5337 33.8152 70.0544 41.4455C61.7594 48.8897 57.6119 59.0325 57.6119 71.8738C57.6119 76.7126 58.5335 81.1791 60.3769 85.2734C62.2202 89.1816 64.6165 92.9038 67.5659 96.4398C70.6995 99.7897 74.0175 102.953 77.5199 105.931C81.2065 108.909 84.8932 111.793 88.5799 114.585C79.1789 117.004 71.529 120.168 65.6304 124.076C59.916 127.985 55.7685 132.265 53.1879 136.918C50.6072 141.384 49.5934 145.944 50.1464 150.597C50.515 155.249 52.3584 159.437 55.6764 163.159C58.9944 166.881 63.6027 169.952 69.5014 172.371ZM104.064 130.497C106.829 134.033 108.211 138.034 108.211 142.501C108.211 145.293 107.751 148.177 106.829 151.155C105.907 153.946 104.525 156.552 102.681 158.971C101.022 161.391 98.8103 163.438 96.0453 165.113C93.2804 166.602 90.0545 167.346 86.3679 167.346C77.1512 167.346 70.3309 165.299 65.9069 161.205C61.4829 157.11 59.5474 152.365 60.1004 146.967C60.6534 141.57 63.6949 136.266 69.2249 131.055C74.9392 125.844 83.3264 122.122 94.3864 119.889C98.2574 123.425 101.483 126.961 104.064 130.497Z" fill="#F8F8F8"/>
</svg>
