<svg width="103" height="103" viewBox="0 0 103 103" fill="none" xmlns="http://www.w3.org/2000/svg">
<circle cx="51.5" cy="51.5" r="51.5" fill="url(#paint0_linear_4_64)"/>
<path d="M44.6724 88C40.4328 88 36.7922 87.3952 33.7507 86.1855C30.8014 84.9758 28.4972 83.4404 26.8382 81.5793C25.1792 79.7183 24.2575 77.6246 24.0732 75.2983C23.7967 72.972 24.3036 70.6922 25.5939 68.4589C26.8843 66.1326 28.958 63.9923 31.8152 62.0382C34.7645 60.0841 38.5894 58.5022 43.2899 57.2925C41.4466 55.8967 39.6033 54.4544 37.7599 52.9656C36.0088 51.4767 34.3498 49.8948 32.7829 48.2199C31.3083 46.4519 30.1101 44.5908 29.1884 42.6367C28.2668 40.5895 27.8059 38.3563 27.8059 35.9369C27.8059 29.5163 29.8797 24.4449 34.0272 20.7227C38.2668 16.9076 43.8429 15 50.7554 15C55.4559 15 59.2808 15.6048 62.2302 16.8145C65.2717 18.0242 67.5297 19.6526 69.0044 21.6998C70.4791 23.747 71.2164 26.1663 71.2164 28.9579C71.2164 31.6565 70.4791 34.5411 69.0044 37.6119C68.6357 38.4493 68.1749 38.9611 67.6219 39.1472C67.1611 39.2403 66.7003 39.1938 66.2394 39.0076C65.7786 38.8215 65.456 38.4959 65.2717 38.0306C65.0873 37.5653 65.1795 37.1001 65.5482 36.6348C66.2855 35.6112 66.7924 34.1689 67.0689 32.3078C67.4376 30.3537 67.3454 28.4461 66.7924 26.5851C66.3316 24.724 65.3638 23.1421 63.8892 21.8394C62.4145 20.4436 60.2947 19.7457 57.5297 19.7457C55.6863 19.7457 54.0734 20.1644 52.6909 21.0019C51.3084 21.7463 50.1563 22.7699 49.2347 24.0727C48.313 25.3754 47.6218 26.9108 47.1609 28.6788C46.7001 30.3537 46.4697 32.0752 46.4697 33.8432C46.4697 36.0765 46.9766 38.1236 47.9904 39.9847C49.0964 41.8458 50.4328 43.6603 51.9997 45.4283C53.6587 47.1032 55.4559 48.7317 57.3914 50.3136C59.4191 51.8955 61.3546 53.4774 63.1979 55.0593C66.2394 54.4079 69.1887 53.2913 72.0459 51.7094C74.9031 50.0344 77.5298 48.1734 79.9262 46.1262C82.4147 43.986 84.5806 41.7992 86.4239 39.566C88.2672 37.2396 89.7419 35.0529 90.8479 33.0057C91.0322 32.6335 91.3548 32.3544 91.8157 32.1683C92.2765 31.9822 92.6912 31.9356 93.0599 32.0287C93.4286 32.0287 93.7051 32.2148 93.8894 32.587C94.0737 32.9592 94.0277 33.4245 93.7512 33.9828C93.0138 35.6577 91.8157 37.7049 90.1567 40.1243C88.4977 42.4506 86.47 44.7769 84.0737 47.1032C81.6773 49.3365 78.9584 51.4302 75.9169 53.3843C72.8754 55.3384 69.5574 56.7808 65.9629 57.7113C67.6219 59.4793 69.0044 61.2938 70.1104 63.1549C71.2164 65.0159 71.7694 67.0631 71.7694 69.2964C71.7694 71.5296 71.1242 73.7629 69.8339 75.9962C68.6357 78.2294 66.8846 80.2301 64.5804 81.9981C62.2762 83.7661 59.4191 85.2084 56.0089 86.325C52.6909 87.4417 48.9121 88 44.6724 88ZM53.1057 71.2505C53.1057 69.0172 52.4144 67.0166 51.0319 65.2486C49.7416 63.4806 48.1287 61.7126 46.1932 59.9445C40.6632 61.0612 36.4696 62.9222 33.6124 65.5277C30.8474 68.1332 29.3267 70.7852 29.0502 73.4837C28.7737 76.1823 29.7414 78.5551 31.9534 80.6023C34.1654 82.6495 37.5756 83.673 42.1839 83.673C44.0273 83.673 45.6402 83.3008 47.0227 82.5564C48.4052 81.7189 49.5112 80.6953 50.3407 79.4857C51.2623 78.276 51.9536 76.9732 52.4144 75.5774C52.8753 74.0886 53.1057 72.6463 53.1057 71.2505Z" fill="white"/>
<defs>
<linearGradient id="paint0_linear_4_64" x1="35.8939" y1="-1.0258e-06" x2="72.3081" y2="103" gradientUnits="userSpaceOnUse">
<stop stop-color="#32C0EF"/>
<stop offset="1" stop-color="#EB0D66"/>
</linearGradient>
</defs>
</svg>
